# xmcd CD database file
#
# Track frame offsets:
#	150
#	12118
#	25720
#	33984
#	49146
#	65001
#	78688
#	92897
#	105113
#	120497
#	135761
#	160069
#	176496
#	190599
#	204749
#	223602
#	240274
#
# Disc length: 3536 seconds
#
# Revision: 4
# Processed by: cddbd v1.5PL3 Copyright (c) Steve Scherf et al.
# Submitted via: CDex 1.51
#
DISCID=cf0dce11
DTITLE=Louis Armstrong - Collection CD 3/3
DYEAR=2000
DGENRE=Jazz
TTITLE0=Jeepers Creepers
TTITLE1=A Kiss to Build a Dream On
TTITLE2=When the Saints Go Marchin' In
TTITLE3=Mack the Knife
TTITLE4=C'est Si Bon
TTITLE5=St. Louis Blues
TTITLE6=Black and Blue
TTITLE7=Dipper Mouth Blues
TTITLE8=Bye and Bye
TTITLE9=Rockin' Chair
TTITLE10=C. Jam Blues
TTITLE11=Stardust
TTITLE12=Royal Garden Blues
TTITLE13=I Used to Love You
TTITLE14=Where Did You Stay Last Night
TTITLE15=If I Could Be With You (Tonight)
TTITLE16=Way Down Yonder in New Orleans
EXTD=YEAR: 2000
EXTT0=
EXTT1=
EXTT2=
EXTT3=
EXTT4=
EXTT5=
EXTT6=
EXTT7=
EXTT8=
EXTT9=
EXTT10=
EXTT11=
EXTT12=
EXTT13=
EXTT14=
EXTT15=
EXTT16=
PLAYORDER=
